<?xml version="1.0" standalone="no"?><!DOCTYPE svg PUBLIC "-//W3C//DTD SVG 1.1//EN" "http://www.w3.org/Graphics/SVG/1.1/DTD/svg11.dtd"><svg t="1640226331411" class="icon" viewBox="0 0 1024 1024" version="1.1" xmlns="http://www.w3.org/2000/svg" p-id="4551" xmlns:xlink="http://www.w3.org/1999/xlink" width="200" height="200"><defs><style type="text/css"></style></defs><path d="M611.84 327.68h199.68L578.56 128v166.4c0 20.48 15.36 33.28 33.28 33.28z" fill="#C8402A" p-id="4552"></path><path d="M552.96 320V128H250.88c-23.04 0-38.4 17.92-38.4 38.4v691.2c0 20.48 17.92 38.4 38.4 38.4h524.8c20.48 0 38.4-17.92 38.4-38.4V355.84H588.8c-20.48 0-35.84-15.36-35.84-35.84z m-276.48-33.28c0-12.8 10.24-25.6 25.6-25.6h145.92c12.8 0 25.6 12.8 25.6 25.6s-10.24 25.6-25.6 25.6h-46.08v79.36c0 12.8-10.24 25.6-25.6 25.6s-25.6-10.24-25.6-25.6v-79.36h-48.64c-15.36 0-25.6-10.24-25.6-25.6z m314.88 514.56h-281.6c-12.8 0-23.04-7.68-23.04-20.48s10.24-20.48 23.04-20.48h281.6c12.8 0 23.04 7.68 23.04 20.48s-10.24 20.48-23.04 20.48z m112.64-107.52H312.32c-12.8 0-23.04-7.68-23.04-20.48 0-10.24 10.24-20.48 23.04-20.48h394.24c12.8 0 23.04 7.68 23.04 20.48s-12.8 20.48-25.6 20.48z m0-110.08H312.32c-12.8 0-23.04-7.68-23.04-20.48s10.24-20.48 23.04-20.48h394.24c12.8 0 23.04 7.68 23.04 20.48s-12.8 20.48-25.6 20.48z m23.04-125.44c0 10.24-10.24 20.48-23.04 20.48h-186.88c-12.8 0-23.04-7.68-23.04-20.48s10.24-20.48 23.04-20.48h186.88c12.8 0 23.04 10.24 23.04 20.48z" fill="#C8402A" p-id="4553"></path></svg>